<mxfile host="65bd71144e">
    <diagram id="vovnKY_1h27tFwQpQ2al" name="Page-1">
        <mxGraphModel dx="1066" dy="771" grid="1" gridSize="10" guides="1" tooltips="1" connect="1" arrows="1" fold="1" page="1" pageScale="1" pageWidth="850" pageHeight="1100" math="0" shadow="0">
            <root>
                <mxCell id="0"/>
                <mxCell id="1" parent="0"/>
                <mxCell id="5" value="" style="edgeStyle=none;html=1;" edge="1" parent="1" source="2" target="4">
                    <mxGeometry relative="1" as="geometry"/>
                </mxCell>
                <mxCell id="2" value="Patient guardian" style="shape=umlActor;verticalLabelPosition=bottom;verticalAlign=top;html=1;" vertex="1" parent="1">
                    <mxGeometry x="90" y="60" width="30" height="60" as="geometry"/>
                </mxCell>
                <mxCell id="4" value="Login" style="ellipse;whiteSpace=wrap;html=1;verticalAlign=middle;" vertex="1" parent="1">
                    <mxGeometry x="240" y="57.5" width="120" height="65" as="geometry"/>
                </mxCell>
                <mxCell id="6" value="Register new patient" style="ellipse;whiteSpace=wrap;html=1;verticalAlign=middle;" vertex="1" parent="1">
                    <mxGeometry x="240" y="150" width="120" height="70" as="geometry"/>
                </mxCell>
                <mxCell id="8" value="" style="edgeStyle=none;html=1;entryX=0;entryY=0.5;entryDx=0;entryDy=0;" edge="1" parent="1" source="2" target="6">
                    <mxGeometry relative="1" as="geometry">
                        <mxPoint x="130" y="100" as="sourcePoint"/>
                        <mxPoint x="250" y="100" as="targetPoint"/>
                    </mxGeometry>
                </mxCell>
            </root>
        </mxGraphModel>
    </diagram>
</mxfile>